
  <svg width='948px'
       height='354.6727779350266px'
       viewBox='0 0 948 354.6727779350266'
       xmlns='http://www.w3.org/2000/svg'
       xmlns:xlink="http://www.w3.org/1999/xlink">

    <style type='text/css'>
    .keycap .border { stroke: black; stroke-width: 2; }
    .keycap .inner.border { stroke: rgba(0,0,0,.1); }
    </style>
    <defs>
      <linearGradient id="DCS">
        <stop offset="0%" stop-color="black" stop-opacity="0"/>
        <stop offset="40%" stop-color="black" stop-opacity="0.1"/>
        <stop offset="60%" stop-color="black" stop-opacity="0.1"/>
        <stop offset="100%" stop-color="black" stop-opacity="0"/>
      </linearGradient>
      <linearGradient id="SPACE" x1="0%" x2="0%" y1="0%" y2="100%">
        <stop offset="0%" stop-color="black" stop-opacity="0.1"/>
        <stop offset="20%" stop-color="black" stop-opacity="0.0"/>
        <stop offset="40%" stop-color="black" stop-opacity="0.0"/>
        <stop offset="100%" stop-color="black" stop-opacity="0.1"/>
      </linearGradient>
      <radialGradient id="DSA">
        <stop offset="0%" stop-color="black" stop-opacity="0.1"/>
        <stop offset="10%" stop-color="black" stop-opacity="0.1"/>
        <stop offset="100%" stop-color="black" stop-opacity="0"/>
      </radialGradient>
      <radialGradient id="SA" xlink:href="#DSA" />
    </defs>

    <g transform='translate(10,10)'>
      <rect width="928" height="334.6727779350266"
            stroke="#ddd" stroke-width="1" fill="#eeeeee" rx="6"/>
      <g transform='translate(5,5)'>
        
  <g class='  keycap'
  >

  
    <!-- Outer Border -->
    <rect x="190" y="55"
          width="52" height="52"
          rx="5" fill="#4d4d4d" class="outer border"/>
    
    <!-- Outer Fill -->
    <rect x="190" y="55"
          width="52" height="52"
          rx="5" fill="#4d4d4d"/>
    

    
      <!-- Inner Border -->
      <rect x="196" y="59"
            width="40" height="40"
            rx="5" fill="#5d5d5d" class="inner border"/>
      
      <!-- Inner Fill -->
      <rect x="196" y="59"
            width="40" height="40"
            rx="5" fill="#5d5d5d"/>
      
      
        
        
        <rect x="196" y="59"
              width="40" height="40"
              rx="5" fill="url(#SA)"/>
      

     
   
  </g>

  <g class='  keycap'
  >

  
    <!-- Outer Border -->
    <rect x="703" y="55"
          width="52" height="52"
          rx="5" fill="#4d4d4d" class="outer border"/>
    
    <!-- Outer Fill -->
    <rect x="703" y="55"
          width="52" height="52"
          rx="5" fill="#4d4d4d"/>
    

    
      <!-- Inner Border -->
      <rect x="709" y="59"
            width="40" height="40"
            rx="5" fill="#5d5d5d" class="inner border"/>
      
      <!-- Inner Fill -->
      <rect x="709" y="59"
            width="40" height="40"
            rx="5" fill="#5d5d5d"/>
      
      
        
        
        <rect x="709" y="59"
              width="40" height="40"
              rx="5" fill="url(#SA)"/>
      

     
   
  </g>

  <g class='  keycap'
  >

  
    <!-- Outer Border -->
    <rect x="136" y="61.75"
          width="52" height="52"
          rx="5" fill="#4d4d4d" class="outer border"/>
    
    <!-- Outer Fill -->
    <rect x="136" y="61.75"
          width="52" height="52"
          rx="5" fill="#4d4d4d"/>
    

    
      <!-- Inner Border -->
      <rect x="142" y="65.75"
            width="40" height="40"
            rx="5" fill="#5d5d5d" class="inner border"/>
      
      <!-- Inner Fill -->
      <rect x="142" y="65.75"
            width="40" height="40"
            rx="5" fill="#5d5d5d"/>
      
      
        
        
        <rect x="142" y="65.75"
              width="40" height="40"
              rx="5" fill="url(#SA)"/>
      

     
   
  </g>

  <g class='  keycap'
  >

  
    <!-- Outer Border -->
    <rect x="244" y="61.75"
          width="52" height="52"
          rx="5" fill="#4d4d4d" class="outer border"/>
    
    <!-- Outer Fill -->
    <rect x="244" y="61.75"
          width="52" height="52"
          rx="5" fill="#4d4d4d"/>
    

    
      <!-- Inner Border -->
      <rect x="250" y="65.75"
            width="40" height="40"
            rx="5" fill="#5d5d5d" class="inner border"/>
      
      <!-- Inner Fill -->
      <rect x="250" y="65.75"
            width="40" height="40"
            rx="5" fill="#5d5d5d"/>
      
      
        
        
        <rect x="250" y="65.75"
              width="40" height="40"
              rx="5" fill="url(#SA)"/>
      

     
   
  </g>

  <g class='  keycap'
  >

  
    <!-- Outer Border -->
    <rect x="649" y="62.019999999999996"
          width="52" height="52"
          rx="5" fill="#4d4d4d" class="outer border"/>
    
    <!-- Outer Fill -->
    <rect x="649" y="62.019999999999996"
          width="52" height="52"
          rx="5" fill="#4d4d4d"/>
    

    
      <!-- Inner Border -->
      <rect x="655" y="66.02"
            width="40" height="40"
            rx="5" fill="#5d5d5d" class="inner border"/>
      
      <!-- Inner Fill -->
      <rect x="655" y="66.02"
            width="40" height="40"
            rx="5" fill="#5d5d5d"/>
      
      
        
        
        <rect x="655" y="66.02"
              width="40" height="40"
              rx="5" fill="url(#SA)"/>
      

     
   
  </g>

  <g class='  keycap'
  >

  
    <!-- Outer Border -->
    <rect x="757" y="62.019999999999996"
          width="52" height="52"
          rx="5" fill="#4d4d4d" class="outer border"/>
    
    <!-- Outer Fill -->
    <rect x="757" y="62.019999999999996"
          width="52" height="52"
          rx="5" fill="#4d4d4d"/>
    

    
      <!-- Inner Border -->
      <rect x="763" y="66.02"
            width="40" height="40"
            rx="5" fill="#5d5d5d" class="inner border"/>
      
      <!-- Inner Fill -->
      <rect x="763" y="66.02"
            width="40" height="40"
            rx="5" fill="#5d5d5d"/>
      
      
        
        
        <rect x="763" y="66.02"
              width="40" height="40"
              rx="5" fill="url(#SA)"/>
      

     
   
  </g>

  <g class='  keycap'
  >

  
    <!-- Outer Border -->
    <rect x="298" y="68.5"
          width="52" height="52"
          rx="5" fill="#4d4d4d" class="outer border"/>
    
    <!-- Outer Fill -->
    <rect x="298" y="68.5"
          width="52" height="52"
          rx="5" fill="#4d4d4d"/>
    

    
      <!-- Inner Border -->
      <rect x="304" y="72.5"
            width="40" height="40"
            rx="5" fill="#5d5d5d" class="inner border"/>
      
      <!-- Inner Fill -->
      <rect x="304" y="72.5"
            width="40" height="40"
            rx="5" fill="#5d5d5d"/>
      
      
        
        
        <rect x="304" y="72.5"
              width="40" height="40"
              rx="5" fill="url(#SA)"/>
      

     
   
  </g>

  <g class='  keycap'
  >

  
    <!-- Outer Border -->
    <rect x="595" y="68.5"
          width="52" height="52"
          rx="5" fill="#4d4d4d" class="outer border"/>
    
    <!-- Outer Fill -->
    <rect x="595" y="68.5"
          width="52" height="52"
          rx="5" fill="#4d4d4d"/>
    

    
      <!-- Inner Border -->
      <rect x="601" y="72.5"
            width="40" height="40"
            rx="5" fill="#5d5d5d" class="inner border"/>
      
      <!-- Inner Fill -->
      <rect x="601" y="72.5"
            width="40" height="40"
            rx="5" fill="#5d5d5d"/>
      
      
        
        
        <rect x="601" y="72.5"
              width="40" height="40"
              rx="5" fill="url(#SA)"/>
      

     
   
  </g>

  <g class='  keycap'
  >

  
    <!-- Outer Border -->
    <rect x="82" y="75.25"
          width="52" height="52"
          rx="5" fill="#4d4d4d" class="outer border"/>
    
    <!-- Outer Fill -->
    <rect x="82" y="75.25"
          width="52" height="52"
          rx="5" fill="#4d4d4d"/>
    

    
      <!-- Inner Border -->
      <rect x="88" y="79.25"
            width="40" height="40"
            rx="5" fill="#5d5d5d" class="inner border"/>
      
      <!-- Inner Fill -->
      <rect x="88" y="79.25"
            width="40" height="40"
            rx="5" fill="#5d5d5d"/>
      
      
        
        
        <rect x="88" y="79.25"
              width="40" height="40"
              rx="5" fill="url(#SA)"/>
      

     
   
  </g>

  <g class='  keycap'
  >

  
    <!-- Outer Border -->
    <rect x="811" y="75.52"
          width="52" height="52"
          rx="5" fill="#4d4d4d" class="outer border"/>
    
    <!-- Outer Fill -->
    <rect x="811" y="75.52"
          width="52" height="52"
          rx="5" fill="#4d4d4d"/>
    

    
      <!-- Inner Border -->
      <rect x="817" y="79.52"
            width="40" height="40"
            rx="5" fill="#5d5d5d" class="inner border"/>
      
      <!-- Inner Fill -->
      <rect x="817" y="79.52"
            width="40" height="40"
            rx="5" fill="#5d5d5d"/>
      
      
        
        
        <rect x="817" y="79.52"
              width="40" height="40"
              rx="5" fill="url(#SA)"/>
      

     
   
  </g>

  <g class='  keycap'
  >

  
    <!-- Outer Border -->
    <rect x="190" y="109"
          width="52" height="52"
          rx="5" fill="#4d4d4d" class="outer border"/>
    
    <!-- Outer Fill -->
    <rect x="190" y="109"
          width="52" height="52"
          rx="5" fill="#4d4d4d"/>
    

    
      <!-- Inner Border -->
      <rect x="196" y="113"
            width="40" height="40"
            rx="5" fill="#5d5d5d" class="inner border"/>
      
      <!-- Inner Fill -->
      <rect x="196" y="113"
            width="40" height="40"
            rx="5" fill="#5d5d5d"/>
      
      
        
        
        <rect x="196" y="113"
              width="40" height="40"
              rx="5" fill="url(#SA)"/>
      

     
   
  </g>

  <g class='  keycap'
  >

  
    <!-- Outer Border -->
    <rect x="703" y="109"
          width="52" height="52"
          rx="5" fill="#4d4d4d" class="outer border"/>
    
    <!-- Outer Fill -->
    <rect x="703" y="109"
          width="52" height="52"
          rx="5" fill="#4d4d4d"/>
    

    
      <!-- Inner Border -->
      <rect x="709" y="113"
            width="40" height="40"
            rx="5" fill="#5d5d5d" class="inner border"/>
      
      <!-- Inner Fill -->
      <rect x="709" y="113"
            width="40" height="40"
            rx="5" fill="#5d5d5d"/>
      
      
        
        
        <rect x="709" y="113"
              width="40" height="40"
              rx="5" fill="url(#SA)"/>
      

     
   
  </g>

  <g class='  keycap'
  >

  
    <!-- Outer Border -->
    <rect x="136" y="115.75"
          width="52" height="52"
          rx="5" fill="#4d4d4d" class="outer border"/>
    
    <!-- Outer Fill -->
    <rect x="136" y="115.75"
          width="52" height="52"
          rx="5" fill="#4d4d4d"/>
    

    
      <!-- Inner Border -->
      <rect x="142" y="119.75"
            width="40" height="40"
            rx="5" fill="#5d5d5d" class="inner border"/>
      
      <!-- Inner Fill -->
      <rect x="142" y="119.75"
            width="40" height="40"
            rx="5" fill="#5d5d5d"/>
      
      
        
        
        <rect x="142" y="119.75"
              width="40" height="40"
              rx="5" fill="url(#SA)"/>
      

     
   
  </g>

  <g class='  keycap'
  >

  
    <!-- Outer Border -->
    <rect x="244" y="115.75"
          width="52" height="52"
          rx="5" fill="#4d4d4d" class="outer border"/>
    
    <!-- Outer Fill -->
    <rect x="244" y="115.75"
          width="52" height="52"
          rx="5" fill="#4d4d4d"/>
    

    
      <!-- Inner Border -->
      <rect x="250" y="119.75"
            width="40" height="40"
            rx="5" fill="#5d5d5d" class="inner border"/>
      
      <!-- Inner Fill -->
      <rect x="250" y="119.75"
            width="40" height="40"
            rx="5" fill="#5d5d5d"/>
      
      
        
        
        <rect x="250" y="119.75"
              width="40" height="40"
              rx="5" fill="url(#SA)"/>
      

     
   
  </g>

  <g class='  keycap'
  >

  
    <!-- Outer Border -->
    <rect x="649" y="116.02"
          width="52" height="52"
          rx="5" fill="#4d4d4d" class="outer border"/>
    
    <!-- Outer Fill -->
    <rect x="649" y="116.02"
          width="52" height="52"
          rx="5" fill="#4d4d4d"/>
    

    
      <!-- Inner Border -->
      <rect x="655" y="120.02"
            width="40" height="40"
            rx="5" fill="#5d5d5d" class="inner border"/>
      
      <!-- Inner Fill -->
      <rect x="655" y="120.02"
            width="40" height="40"
            rx="5" fill="#5d5d5d"/>
      
      
        
        
        <rect x="655" y="120.02"
              width="40" height="40"
              rx="5" fill="url(#SA)"/>
      

     
   
  </g>

  <g class='  keycap'
  >

  
    <!-- Outer Border -->
    <rect x="757" y="116.02"
          width="52" height="52"
          rx="5" fill="#4d4d4d" class="outer border"/>
    
    <!-- Outer Fill -->
    <rect x="757" y="116.02"
          width="52" height="52"
          rx="5" fill="#4d4d4d"/>
    

    
      <!-- Inner Border -->
      <rect x="763" y="120.02"
            width="40" height="40"
            rx="5" fill="#5d5d5d" class="inner border"/>
      
      <!-- Inner Fill -->
      <rect x="763" y="120.02"
            width="40" height="40"
            rx="5" fill="#5d5d5d"/>
      
      
        
        
        <rect x="763" y="120.02"
              width="40" height="40"
              rx="5" fill="url(#SA)"/>
      

     
   
  </g>

  <g class='  keycap'
  >

  
    <!-- Outer Border -->
    <rect x="298" y="122.5"
          width="52" height="52"
          rx="5" fill="#4d4d4d" class="outer border"/>
    
    <!-- Outer Fill -->
    <rect x="298" y="122.5"
          width="52" height="52"
          rx="5" fill="#4d4d4d"/>
    

    
      <!-- Inner Border -->
      <rect x="304" y="126.5"
            width="40" height="40"
            rx="5" fill="#5d5d5d" class="inner border"/>
      
      <!-- Inner Fill -->
      <rect x="304" y="126.5"
            width="40" height="40"
            rx="5" fill="#5d5d5d"/>
      
      
        
        
        <rect x="304" y="126.5"
              width="40" height="40"
              rx="5" fill="url(#SA)"/>
      

     
   
  </g>

  <g class='  keycap'
  >

  
    <!-- Outer Border -->
    <rect x="595" y="122.5"
          width="52" height="52"
          rx="5" fill="#4d4d4d" class="outer border"/>
    
    <!-- Outer Fill -->
    <rect x="595" y="122.5"
          width="52" height="52"
          rx="5" fill="#4d4d4d"/>
    

    
      <!-- Inner Border -->
      <rect x="601" y="126.5"
            width="40" height="40"
            rx="5" fill="#5d5d5d" class="inner border"/>
      
      <!-- Inner Fill -->
      <rect x="601" y="126.5"
            width="40" height="40"
            rx="5" fill="#5d5d5d"/>
      
      
        
        
        <rect x="601" y="126.5"
              width="40" height="40"
              rx="5" fill="url(#SA)"/>
      

     
   
  </g>

  <g class='  keycap'
  >

  
    <!-- Outer Border -->
    <rect x="82" y="129.25"
          width="52" height="52"
          rx="5" fill="#4d4d4d" class="outer border"/>
    
    <!-- Outer Fill -->
    <rect x="82" y="129.25"
          width="52" height="52"
          rx="5" fill="#4d4d4d"/>
    

    
      <!-- Inner Border -->
      <rect x="88" y="133.25"
            width="40" height="40"
            rx="5" fill="#5d5d5d" class="inner border"/>
      
      <!-- Inner Fill -->
      <rect x="88" y="133.25"
            width="40" height="40"
            rx="5" fill="#5d5d5d"/>
      
      
        
        
        <rect x="88" y="133.25"
              width="40" height="40"
              rx="5" fill="url(#SA)"/>
      

     
   
  </g>

  <g class='  keycap'
  >

  
    <!-- Outer Border -->
    <rect x="811" y="129.51999999999998"
          width="52" height="52"
          rx="5" fill="#4d4d4d" class="outer border"/>
    
    <!-- Outer Fill -->
    <rect x="811" y="129.51999999999998"
          width="52" height="52"
          rx="5" fill="#4d4d4d"/>
    

    
      <!-- Inner Border -->
      <rect x="817" y="133.51999999999998"
            width="40" height="40"
            rx="5" fill="#5d5d5d" class="inner border"/>
      
      <!-- Inner Fill -->
      <rect x="817" y="133.51999999999998"
            width="40" height="40"
            rx="5" fill="#5d5d5d"/>
      
      
        
        
        <rect x="817" y="133.51999999999998"
              width="40" height="40"
              rx="5" fill="url(#SA)"/>
      

     
   
  </g>

  <g class='  keycap'
  >

  
    <!-- Outer Border -->
    <rect x="28" y="143.01999999999998"
          width="52" height="52"
          rx="5" fill="#4d4d4d" class="outer border"/>
    
    <!-- Outer Fill -->
    <rect x="28" y="143.01999999999998"
          width="52" height="52"
          rx="5" fill="#4d4d4d"/>
    

    
      <!-- Inner Border -->
      <rect x="34" y="147.01999999999998"
            width="40" height="40"
            rx="5" fill="#5d5d5d" class="inner border"/>
      
      <!-- Inner Fill -->
      <rect x="34" y="147.01999999999998"
            width="40" height="40"
            rx="5" fill="#5d5d5d"/>
      
      
        
        
        <rect x="34" y="147.01999999999998"
              width="40" height="40"
              rx="5" fill="url(#SA)"/>
      

     
   
  </g>

  <g class='  keycap'
  >

  
    <!-- Outer Border -->
    <rect x="865" y="143.01999999999998"
          width="52" height="52"
          rx="5" fill="#4d4d4d" class="outer border"/>
    
    <!-- Outer Fill -->
    <rect x="865" y="143.01999999999998"
          width="52" height="52"
          rx="5" fill="#4d4d4d"/>
    

    
      <!-- Inner Border -->
      <rect x="871" y="147.01999999999998"
            width="40" height="40"
            rx="5" fill="#5d5d5d" class="inner border"/>
      
      <!-- Inner Fill -->
      <rect x="871" y="147.01999999999998"
            width="40" height="40"
            rx="5" fill="#5d5d5d"/>
      
      
        
        
        <rect x="871" y="147.01999999999998"
              width="40" height="40"
              rx="5" fill="url(#SA)"/>
      

     
   
  </g>

  <g class='  keycap'
  >

  
    <!-- Outer Border -->
    <rect x="190" y="163"
          width="52" height="52"
          rx="5" fill="#4d4d4d" class="outer border"/>
    
    <!-- Outer Fill -->
    <rect x="190" y="163"
          width="52" height="52"
          rx="5" fill="#4d4d4d"/>
    

    
      <!-- Inner Border -->
      <rect x="196" y="167"
            width="40" height="40"
            rx="5" fill="#5d5d5d" class="inner border"/>
      
      <!-- Inner Fill -->
      <rect x="196" y="167"
            width="40" height="40"
            rx="5" fill="#5d5d5d"/>
      
      
        
        
        <rect x="196" y="167"
              width="40" height="40"
              rx="5" fill="url(#SA)"/>
      

     
   
  </g>

  <g class='  keycap'
  >

  
    <!-- Outer Border -->
    <rect x="703" y="163"
          width="52" height="52"
          rx="5" fill="#4d4d4d" class="outer border"/>
    
    <!-- Outer Fill -->
    <rect x="703" y="163"
          width="52" height="52"
          rx="5" fill="#4d4d4d"/>
    

    
      <!-- Inner Border -->
      <rect x="709" y="167"
            width="40" height="40"
            rx="5" fill="#5d5d5d" class="inner border"/>
      
      <!-- Inner Fill -->
      <rect x="709" y="167"
            width="40" height="40"
            rx="5" fill="#5d5d5d"/>
      
      
        
        
        <rect x="709" y="167"
              width="40" height="40"
              rx="5" fill="url(#SA)"/>
      

     
   
  </g>

  <g class='  keycap'
  >

  
    <!-- Outer Border -->
    <rect x="136" y="169.75"
          width="52" height="52"
          rx="5" fill="#4d4d4d" class="outer border"/>
    
    <!-- Outer Fill -->
    <rect x="136" y="169.75"
          width="52" height="52"
          rx="5" fill="#4d4d4d"/>
    

    
      <!-- Inner Border -->
      <rect x="142" y="173.75"
            width="40" height="40"
            rx="5" fill="#5d5d5d" class="inner border"/>
      
      <!-- Inner Fill -->
      <rect x="142" y="173.75"
            width="40" height="40"
            rx="5" fill="#5d5d5d"/>
      
      
        
        
        <rect x="142" y="173.75"
              width="40" height="40"
              rx="5" fill="url(#SA)"/>
      

     
   
  </g>

  <g class='  keycap'
  >

  
    <!-- Outer Border -->
    <rect x="244" y="169.75"
          width="52" height="52"
          rx="5" fill="#4d4d4d" class="outer border"/>
    
    <!-- Outer Fill -->
    <rect x="244" y="169.75"
          width="52" height="52"
          rx="5" fill="#4d4d4d"/>
    

    
      <!-- Inner Border -->
      <rect x="250" y="173.75"
            width="40" height="40"
            rx="5" fill="#5d5d5d" class="inner border"/>
      
      <!-- Inner Fill -->
      <rect x="250" y="173.75"
            width="40" height="40"
            rx="5" fill="#5d5d5d"/>
      
      
        
        
        <rect x="250" y="173.75"
              width="40" height="40"
              rx="5" fill="url(#SA)"/>
      

     
   
  </g>

  <g class='  keycap'
  >

  
    <!-- Outer Border -->
    <rect x="649" y="170.01999999999998"
          width="52" height="52"
          rx="5" fill="#4d4d4d" class="outer border"/>
    
    <!-- Outer Fill -->
    <rect x="649" y="170.01999999999998"
          width="52" height="52"
          rx="5" fill="#4d4d4d"/>
    

    
      <!-- Inner Border -->
      <rect x="655" y="174.01999999999998"
            width="40" height="40"
            rx="5" fill="#5d5d5d" class="inner border"/>
      
      <!-- Inner Fill -->
      <rect x="655" y="174.01999999999998"
            width="40" height="40"
            rx="5" fill="#5d5d5d"/>
      
      
        
        
        <rect x="655" y="174.01999999999998"
              width="40" height="40"
              rx="5" fill="url(#SA)"/>
      

     
   
  </g>

  <g class='  keycap'
  >

  
    <!-- Outer Border -->
    <rect x="757" y="170.01999999999998"
          width="52" height="52"
          rx="5" fill="#4d4d4d" class="outer border"/>
    
    <!-- Outer Fill -->
    <rect x="757" y="170.01999999999998"
          width="52" height="52"
          rx="5" fill="#4d4d4d"/>
    

    
      <!-- Inner Border -->
      <rect x="763" y="174.01999999999998"
            width="40" height="40"
            rx="5" fill="#5d5d5d" class="inner border"/>
      
      <!-- Inner Fill -->
      <rect x="763" y="174.01999999999998"
            width="40" height="40"
            rx="5" fill="#5d5d5d"/>
      
      
        
        
        <rect x="763" y="174.01999999999998"
              width="40" height="40"
              rx="5" fill="url(#SA)"/>
      

     
   
  </g>

  <g class='  keycap'
  >

  
    <!-- Outer Border -->
    <rect x="298" y="176.5"
          width="52" height="52"
          rx="5" fill="#4d4d4d" class="outer border"/>
    
    <!-- Outer Fill -->
    <rect x="298" y="176.5"
          width="52" height="52"
          rx="5" fill="#4d4d4d"/>
    

    
      <!-- Inner Border -->
      <rect x="304" y="180.5"
            width="40" height="40"
            rx="5" fill="#5d5d5d" class="inner border"/>
      
      <!-- Inner Fill -->
      <rect x="304" y="180.5"
            width="40" height="40"
            rx="5" fill="#5d5d5d"/>
      
      
        
        
        <rect x="304" y="180.5"
              width="40" height="40"
              rx="5" fill="url(#SA)"/>
      

     
   
  </g>

  <g class='  keycap'
  >

  
    <!-- Outer Border -->
    <rect x="595" y="176.5"
          width="52" height="52"
          rx="5" fill="#4d4d4d" class="outer border"/>
    
    <!-- Outer Fill -->
    <rect x="595" y="176.5"
          width="52" height="52"
          rx="5" fill="#4d4d4d"/>
    

    
      <!-- Inner Border -->
      <rect x="601" y="180.5"
            width="40" height="40"
            rx="5" fill="#5d5d5d" class="inner border"/>
      
      <!-- Inner Fill -->
      <rect x="601" y="180.5"
            width="40" height="40"
            rx="5" fill="#5d5d5d"/>
      
      
        
        
        <rect x="601" y="180.5"
              width="40" height="40"
              rx="5" fill="url(#SA)"/>
      

     
   
  </g>

  <g class='  keycap'
  >

  
    <!-- Outer Border -->
    <rect x="82" y="183.25"
          width="52" height="52"
          rx="5" fill="#4d4d4d" class="outer border"/>
    
    <!-- Outer Fill -->
    <rect x="82" y="183.25"
          width="52" height="52"
          rx="5" fill="#4d4d4d"/>
    

    
      <!-- Inner Border -->
      <rect x="88" y="187.25"
            width="40" height="40"
            rx="5" fill="#5d5d5d" class="inner border"/>
      
      <!-- Inner Fill -->
      <rect x="88" y="187.25"
            width="40" height="40"
            rx="5" fill="#5d5d5d"/>
      
      
        
        
        <rect x="88" y="187.25"
              width="40" height="40"
              rx="5" fill="url(#SA)"/>
      

     
   
  </g>

  <g class='  keycap'
  >

  
    <!-- Outer Border -->
    <rect x="811" y="183.51999999999998"
          width="52" height="52"
          rx="5" fill="#4d4d4d" class="outer border"/>
    
    <!-- Outer Fill -->
    <rect x="811" y="183.51999999999998"
          width="52" height="52"
          rx="5" fill="#4d4d4d"/>
    

    
      <!-- Inner Border -->
      <rect x="817" y="187.51999999999998"
            width="40" height="40"
            rx="5" fill="#5d5d5d" class="inner border"/>
      
      <!-- Inner Fill -->
      <rect x="817" y="187.51999999999998"
            width="40" height="40"
            rx="5" fill="#5d5d5d"/>
      
      
        
        
        <rect x="817" y="187.51999999999998"
              width="40" height="40"
              rx="5" fill="url(#SA)"/>
      

     
   
  </g>

  <g class='  keycap'
  >

  
    <!-- Outer Border -->
    <rect x="28" y="197.01999999999998"
          width="52" height="52"
          rx="5" fill="#4d4d4d" class="outer border"/>
    
    <!-- Outer Fill -->
    <rect x="28" y="197.01999999999998"
          width="52" height="52"
          rx="5" fill="#4d4d4d"/>
    

    
      <!-- Inner Border -->
      <rect x="34" y="201.01999999999998"
            width="40" height="40"
            rx="5" fill="#5d5d5d" class="inner border"/>
      
      <!-- Inner Fill -->
      <rect x="34" y="201.01999999999998"
            width="40" height="40"
            rx="5" fill="#5d5d5d"/>
      
      
        
        
        <rect x="34" y="201.01999999999998"
              width="40" height="40"
              rx="5" fill="url(#SA)"/>
      

     
   
  </g>

  <g class='  keycap'
  >

  
    <!-- Outer Border -->
    <rect x="865" y="197.01999999999998"
          width="52" height="52"
          rx="5" fill="#4d4d4d" class="outer border"/>
    
    <!-- Outer Fill -->
    <rect x="865" y="197.01999999999998"
          width="52" height="52"
          rx="5" fill="#4d4d4d"/>
    

    
      <!-- Inner Border -->
      <rect x="871" y="201.01999999999998"
            width="40" height="40"
            rx="5" fill="#5d5d5d" class="inner border"/>
      
      <!-- Inner Fill -->
      <rect x="871" y="201.01999999999998"
            width="40" height="40"
            rx="5" fill="#5d5d5d"/>
      
      
        
        
        <rect x="871" y="201.01999999999998"
              width="40" height="40"
              rx="5" fill="url(#SA)"/>
      

     
   
  </g>

  <g class='  keycap'
  
     transform="rotate(15 0 0)"
  >

  
    <!-- Outer Border -->
    <rect x="392.5" y="41.5"
          width="65.5" height="65.5"
          rx="5" fill="#4d4d4d" class="outer border"/>
    
    <!-- Outer Fill -->
    <rect x="392.5" y="41.5"
          width="65.5" height="65.5"
          rx="5" fill="#4d4d4d"/>
    

    
      <!-- Inner Border -->
      <rect x="398.5" y="45.5"
            width="53.5" height="53.5"
            rx="5" fill="#5d5d5d" class="inner border"/>
      
      <!-- Inner Fill -->
      <rect x="398.5" y="45.5"
            width="53.5" height="53.5"
            rx="5" fill="#5d5d5d"/>
      
      
        
        
        <rect x="398.5" y="45.5"
              width="53.5" height="53.5"
              rx="5" fill="url(#SA)"/>
      

     
   
  </g>

  <g class='  keycap'
  
     transform="rotate(15 0 0)"
  >

  
    <!-- Outer Border -->
    <rect x="365.5" y="149.5"
          width="52" height="52"
          rx="5" fill="#4d4d4d" class="outer border"/>
    
    <!-- Outer Fill -->
    <rect x="365.5" y="149.5"
          width="52" height="52"
          rx="5" fill="#4d4d4d"/>
    

    
      <!-- Inner Border -->
      <rect x="371.5" y="153.5"
            width="40" height="40"
            rx="5" fill="#5d5d5d" class="inner border"/>
      
      <!-- Inner Fill -->
      <rect x="371.5" y="153.5"
            width="40" height="40"
            rx="5" fill="#5d5d5d"/>
      
      
        
        
        <rect x="371.5" y="153.5"
              width="40" height="40"
              rx="5" fill="url(#SA)"/>
      

     
   
  </g>

  <g class='  keycap'
  
     transform="rotate(15 0 0)"
  >

  
    <!-- Outer Border -->
    <rect x="311.5" y="156.51999999999998"
          width="52" height="52"
          rx="5" fill="#4d4d4d" class="outer border"/>
    
    <!-- Outer Fill -->
    <rect x="311.5" y="156.51999999999998"
          width="52" height="52"
          rx="5" fill="#4d4d4d"/>
    

    
      <!-- Inner Border -->
      <rect x="317.5" y="160.51999999999998"
            width="40" height="40"
            rx="5" fill="#5d5d5d" class="inner border"/>
      
      <!-- Inner Fill -->
      <rect x="317.5" y="160.51999999999998"
            width="40" height="40"
            rx="5" fill="#5d5d5d"/>
      
      
        
        
        <rect x="317.5" y="160.51999999999998"
              width="40" height="40"
              rx="5" fill="url(#SA)"/>
      

     
   
  </g>

  <g class='  keycap'
  
     transform="rotate(15 0 0)"
  >

  
    <!-- Outer Border -->
    <rect x="419.5" y="156.51999999999998"
          width="52" height="52"
          rx="5" fill="#4d4d4d" class="outer border"/>
    
    <!-- Outer Fill -->
    <rect x="419.5" y="156.51999999999998"
          width="52" height="52"
          rx="5" fill="#4d4d4d"/>
    

    
      <!-- Inner Border -->
      <rect x="425.5" y="160.51999999999998"
            width="40" height="40"
            rx="5" fill="#5d5d5d" class="inner border"/>
      
      <!-- Inner Fill -->
      <rect x="425.5" y="160.51999999999998"
            width="40" height="40"
            rx="5" fill="#5d5d5d"/>
      
      
        
        
        <rect x="425.5" y="160.51999999999998"
              width="40" height="40"
              rx="5" fill="url(#SA)"/>
      

     
   
  </g>

  <g class='  keycap'
  
     transform="rotate(-15 0 0)"
  >

  
    <!-- Outer Border -->
    <rect x="455.14" y="284.5"
          width="65.5" height="65.5"
          rx="5" fill="#4d4d4d" class="outer border"/>
    
    <!-- Outer Fill -->
    <rect x="455.14" y="284.5"
          width="65.5" height="65.5"
          rx="5" fill="#4d4d4d"/>
    

    
      <!-- Inner Border -->
      <rect x="461.14" y="288.5"
            width="53.5" height="53.5"
            rx="5" fill="#5d5d5d" class="inner border"/>
      
      <!-- Inner Fill -->
      <rect x="461.14" y="288.5"
            width="53.5" height="53.5"
            rx="5" fill="#5d5d5d"/>
      
      
        
        
        <rect x="461.14" y="288.5"
              width="53.5" height="53.5"
              rx="5" fill="url(#SA)"/>
      

     
   
  </g>

  <g class='  keycap'
  
     transform="rotate(-15 0 0)"
  >

  
    <!-- Outer Border -->
    <rect x="500.5" y="392.5"
          width="52" height="52"
          rx="5" fill="#4d4d4d" class="outer border"/>
    
    <!-- Outer Fill -->
    <rect x="500.5" y="392.5"
          width="52" height="52"
          rx="5" fill="#4d4d4d"/>
    

    
      <!-- Inner Border -->
      <rect x="506.5" y="396.5"
            width="40" height="40"
            rx="5" fill="#5d5d5d" class="inner border"/>
      
      <!-- Inner Fill -->
      <rect x="506.5" y="396.5"
            width="40" height="40"
            rx="5" fill="#5d5d5d"/>
      
      
        
        
        <rect x="506.5" y="396.5"
              width="40" height="40"
              rx="5" fill="url(#SA)"/>
      

     
   
  </g>

  <g class='  keycap'
  
     transform="rotate(-15 0 0)"
  >

  
    <!-- Outer Border -->
    <rect x="446.5" y="399.52"
          width="52" height="52"
          rx="5" fill="#4d4d4d" class="outer border"/>
    
    <!-- Outer Fill -->
    <rect x="446.5" y="399.52"
          width="52" height="52"
          rx="5" fill="#4d4d4d"/>
    

    
      <!-- Inner Border -->
      <rect x="452.5" y="403.52"
            width="40" height="40"
            rx="5" fill="#5d5d5d" class="inner border"/>
      
      <!-- Inner Fill -->
      <rect x="452.5" y="403.52"
            width="40" height="40"
            rx="5" fill="#5d5d5d"/>
      
      
        
        
        <rect x="452.5" y="403.52"
              width="40" height="40"
              rx="5" fill="url(#SA)"/>
      

     
   
  </g>

  <g class='  keycap'
  
     transform="rotate(-15 0 0)"
  >

  
    <!-- Outer Border -->
    <rect x="554.5" y="399.52"
          width="52" height="52"
          rx="5" fill="#4d4d4d" class="outer border"/>
    
    <!-- Outer Fill -->
    <rect x="554.5" y="399.52"
          width="52" height="52"
          rx="5" fill="#4d4d4d"/>
    

    
      <!-- Inner Border -->
      <rect x="560.5" y="403.52"
            width="40" height="40"
            rx="5" fill="#5d5d5d" class="inner border"/>
      
      <!-- Inner Fill -->
      <rect x="560.5" y="403.52"
            width="40" height="40"
            rx="5" fill="#5d5d5d"/>
      
      
        
        
        <rect x="560.5" y="403.52"
              width="40" height="40"
              rx="5" fill="url(#SA)"/>
      

     
   
  </g>

      </g>
    </g>
  </svg>
